<?xml version="1.0" encoding="utf-8"?>
<!-- Generator: Adobe Illustrator 16.0.0, SVG Export Plug-In . SVG Version: 6.00 Build 0)  -->
<!DOCTYPE svg PUBLIC "-//W3C//DTD SVG 1.1//EN" "http://www.w3.org/Graphics/SVG/1.1/DTD/svg11.dtd">
<svg version="1.1" id="Layer_1" xmlns="http://www.w3.org/2000/svg" xmlns:xlink="http://www.w3.org/1999/xlink" x="0px" y="0px"
	 width="80px" height="80px" viewBox="0 0 80 80" enable-background="new 0 0 80 80" xml:space="preserve">
<path fill="" d="M70.842,25.572l-7.839-11.923c-0.741-1.126-1.999-1.806-3.348-1.806H19.344c-1.348,0-2.606,0.68-3.348,1.806L8.158,25.572
	c-0.927,1.411-0.87,3.251,0.143,4.602l27.993,37.376c0.757,1.012,1.944,1.605,3.206,1.605s2.449-0.594,3.206-1.605L70.7,30.174
	C71.713,28.824,71.769,26.983,70.842,25.572z M39.593,15.849l7.606,10.589H31.801l7.606-10.589H39.593z M48.049,29.108L39.5,60.127
	l-8.55-31.019H48.049z M42.88,15.849h13.843l-6.921,9.636L42.88,15.849z M19.344,15.849h16.775l-6.921,9.636l-4.612-6.421
	c-0.431-0.6-1.264-0.737-1.863-0.306c-0.599,0.43-0.735,1.264-0.305,1.863l4.176,5.816H12.383L19.344,15.849z M12.506,29.108h15.676
	l9.127,33.117L12.506,29.108z M41.691,62.225l9.127-33.117h2.819c0.736,0,1.334-0.598,1.334-1.335c0-0.737-0.598-1.334-1.334-1.334
	h-1.232l7.42-10.331l6.792,10.331h-4.632c-0.738,0-1.336,0.598-1.336,1.334c0,0.738,0.598,1.335,1.336,1.335h4.509L41.691,62.225z"
	/>
</svg>
