<?xml version="1.0" encoding="utf-8"?>
<!-- Generator: Adobe Illustrator 16.0.0, SVG Export Plug-In . SVG Version: 6.00 Build 0)  -->
<!DOCTYPE svg PUBLIC "-//W3C//DTD SVG 1.1//EN" "http://www.w3.org/Graphics/SVG/1.1/DTD/svg11.dtd">
<svg version="1.1" id="Layer_1" xmlns="http://www.w3.org/2000/svg" xmlns:xlink="http://www.w3.org/1999/xlink" x="0px" y="0px"
	 width="80px" height="80px" viewBox="0 0 80 80" enable-background="new 0 0 80 80" xml:space="preserve">
<g>
	<g>
		<path d="M40,8c-12.179,0-22.087,9.909-22.087,22.088c0,8.712,4.983,16.438,12.81,20.044v2.542c0,1.1,0.891,1.992,1.992,1.992
			h14.571c1.102,0,1.992-0.893,1.992-1.992v-2.542c7.828-3.606,12.811-11.332,12.811-20.044C62.088,17.909,52.18,8,40,8z
			 M46.563,46.96c-0.766,0.298-1.27,1.035-1.27,1.856v1.866H34.707v-1.866c0-0.821-0.504-1.559-1.27-1.856
			c-7.01-2.729-11.54-9.352-11.54-16.872c0-9.983,8.121-18.104,18.103-18.104c9.983,0,18.104,8.121,18.104,18.104
			C58.104,37.606,53.574,44.229,46.563,46.96z M54.951,26.712c-0.162-0.715-0.871-1.162-1.588-1.004
			c-0.715,0.162-1.164,0.873-1.004,1.588c0.205,0.908,0.309,1.847,0.309,2.792c0,0.482-0.027,0.97-0.082,1.448
			c-0.084,0.729,0.439,1.389,1.168,1.472c0.051,0.007,0.104,0.009,0.152,0.009c0.666,0,1.24-0.5,1.318-1.177
			c0.066-0.579,0.1-1.168,0.1-1.751C55.324,28.946,55.199,27.812,54.951,26.712z M52.305,20.952
			c-2.277-3.061-5.58-5.154-9.301-5.894c-0.715-0.142-1.418,0.324-1.561,1.044c-0.143,0.719,0.324,1.418,1.043,1.561
			c3.074,0.611,5.803,2.343,7.688,4.875c0.26,0.35,0.66,0.535,1.066,0.535c0.275,0,0.553-0.086,0.791-0.264
			C52.619,22.372,52.742,21.54,52.305,20.952z M44.865,57.207h-9.96c-1.101,0-1.992,0.892-1.992,1.992s0.892,1.992,1.992,1.992h9.96
			c1.1,0,1.992-0.892,1.992-1.992S45.965,57.207,44.865,57.207z M43.818,63.429h-7.636c-1.101,0-1.992,0.892-1.992,1.992
			c0,1.1,0.892,1.992,1.992,1.992h7.636c1.1,0,1.992-0.893,1.992-1.992C45.811,64.32,44.918,63.429,43.818,63.429z M41.697,69.344
			h-3.395c-0.733,0-1.328,0.595-1.328,1.328c0,0.734,0.595,1.328,1.328,1.328h3.395c0.732,0,1.328-0.594,1.328-1.328
			C43.025,69.938,42.43,69.344,41.697,69.344z M46.904,29.438c-0.686-0.268-1.453,0.066-1.723,0.748L40,43.301l-4.463-11.298h5.542
			c0.732,0,1.328-0.596,1.328-1.328c0-0.733-0.596-1.328-1.328-1.328h-7.494c-0.034,0-0.066,0.008-0.101,0.01
			c-0.049,0.004-0.098,0.006-0.147,0.015c-0.052,0.011-0.1,0.027-0.148,0.042c-0.03,0.01-0.062,0.014-0.091,0.025
			c-0.005,0.003-0.008,0.005-0.013,0.007c-0.053,0.022-0.102,0.051-0.15,0.078c-0.028,0.016-0.058,0.028-0.084,0.046
			c-0.041,0.025-0.076,0.06-0.113,0.091c-0.028,0.023-0.061,0.045-0.087,0.071c-0.035,0.034-0.062,0.073-0.092,0.109
			c-0.023,0.031-0.051,0.057-0.071,0.086c-0.031,0.046-0.056,0.097-0.081,0.147c-0.013,0.026-0.029,0.05-0.041,0.075
			c-0.019,0.043-0.029,0.089-0.043,0.135c-0.012,0.037-0.027,0.074-0.035,0.113c-0.008,0.032-0.009,0.067-0.013,0.102
			c-0.007,0.055-0.016,0.106-0.017,0.162c0,0.004-0.001,0.01-0.001,0.014c0,0.032,0.007,0.063,0.01,0.094
			c0.003,0.052,0.005,0.103,0.015,0.154c0.01,0.051,0.026,0.1,0.042,0.147c0.01,0.031,0.015,0.062,0.026,0.093l6.339,16.045
			c0.206,0.522,0.707,0.842,1.235,0.842c0.025,0,0.051-0.007,0.077-0.008c0.025,0.001,0.051,0.008,0.076,0.008
			c0.528,0,1.029-0.319,1.236-0.842l6.34-16.045C47.922,30.48,47.588,29.71,46.904,29.438z"/>
	</g>
</g>
</svg>
