<?xml version="1.0" encoding="utf-8"?>
<!-- Generator: Adobe Illustrator 16.0.0, SVG Export Plug-In . SVG Version: 6.00 Build 0)  -->
<!DOCTYPE svg PUBLIC "-//W3C//DTD SVG 1.1//EN" "http://www.w3.org/Graphics/SVG/1.1/DTD/svg11.dtd">
<svg version="1.1" id="Layer_1" xmlns="http://www.w3.org/2000/svg" xmlns:xlink="http://www.w3.org/1999/xlink" x="0px" y="0px"
	 width="80px" height="80px" viewBox="0 0 80 80" enable-background="new 0 0 80 80" xml:space="preserve">
<g>
	<g>
		<path d="M59.386,8H20.614c-2.197,0-3.98,1.781-3.98,3.98v12.91c0,1.33,0.666,2.574,1.774,3.313l12.665,8.434
			c-5.88,3.184-9.883,9.41-9.883,16.553C21.19,63.563,29.629,72,40.001,72c10.371,0,18.809-8.438,18.809-18.811
			c0-7.143-4.002-13.367-9.881-16.553l12.663-8.434c1.108-0.738,1.774-1.982,1.774-3.313V11.98C63.366,9.781,61.583,8,59.386,8z
			 M54.829,53.189c0,8.191-6.639,14.83-14.828,14.83c-8.191,0-14.83-6.639-14.83-14.83c0-8.189,6.639-14.83,14.83-14.83
			C48.19,38.359,54.829,45,54.829,53.189z M59.386,24.891l-7.585,5.051v-7.578c0-0.732-0.594-1.326-1.327-1.326
			c-0.732,0-1.326,0.594-1.326,1.326v9.346l-4.785,3.188c-1.4-0.334-2.859-0.518-4.361-0.518s-2.961,0.184-4.363,0.518l-4.867-3.242
			v-9.291c0-0.732-0.594-1.326-1.326-1.326c-0.733,0-1.327,0.594-1.327,1.326v7.523l-7.503-4.996V11.98h7.503v3.551
			c0,0.732,0.594,1.328,1.327,1.328c0.732,0,1.326-0.596,1.326-1.328V11.98h18.377v3.551c0,0.732,0.594,1.328,1.326,1.328
			c0.733,0,1.327-0.596,1.327-1.328V11.98h7.585V24.891z M37.621,42.77l-2.209,4.475l-4.938,0.717c-1,0.145-1.83,0.846-2.143,1.807
			c-0.313,0.959-0.053,2.014,0.671,2.721l3.574,3.484l-0.843,4.918c-0.172,0.996,0.238,2.002,1.056,2.596
			c0.462,0.334,1.009,0.506,1.56,0.506c0.422,0,0.847-0.1,1.234-0.305l4.418-2.322l4.416,2.322c0.389,0.203,0.813,0.305,1.235,0.305
			c0.55,0,1.098-0.172,1.56-0.506c0.817-0.594,1.227-1.6,1.056-2.596l-0.843-4.918l3.573-3.486c0.724-0.705,0.983-1.76,0.671-2.719
			c-0.313-0.961-1.143-1.662-2.143-1.807l-4.939-0.717l-2.206-4.475c-0.447-0.906-1.37-1.48-2.38-1.48S38.068,41.863,37.621,42.77z
			 M42.825,49.67l6.32,0.918l-4.572,4.457l1.079,6.293l-5.651-2.971l-5.652,2.971l1.078-6.293l-4.572-4.457l6.32-0.918l2.826-5.727
			L42.825,49.67z"/>
	</g>
</g>
</svg>
