<?xml version="1.0" encoding="utf-8"?>
<!-- Generator: Adobe Illustrator 16.0.0, SVG Export Plug-In . SVG Version: 6.00 Build 0)  -->
<!DOCTYPE svg PUBLIC "-//W3C//DTD SVG 1.1//EN" "http://www.w3.org/Graphics/SVG/1.1/DTD/svg11.dtd">
<svg version="1.1" id="Layer_1" xmlns="http://www.w3.org/2000/svg" xmlns:xlink="http://www.w3.org/1999/xlink" x="0px" y="0px"
	 width="80px" height="80px" viewBox="0 0 80 80" enable-background="new 0 0 80 80" xml:space="preserve">
<g>
	<g>
		<path d="M50.048,62.506h-7.965v-3.578c0-1.087-0.882-1.969-1.97-1.969c-1.087,0-1.968,0.882-1.968,1.969v3.578h-7.965
			c-1.088,0-1.968,0.881-1.968,1.969s0.88,1.969,1.968,1.969h19.867c1.087,0,1.969-0.881,1.969-1.969S51.135,62.506,50.048,62.506z
			 M67.586,14.51H12.413c-2.174,0-3.937,1.764-3.937,3.937v32.126c0,2.175,1.763,3.938,3.937,3.938h55.173
			c2.174,0,3.938-1.763,3.938-3.938V18.446C71.523,16.273,69.76,14.51,67.586,14.51z M67.586,44.965h-9.303
			c-0.725,0-1.313,0.588-1.313,1.313s0.588,1.313,1.313,1.313h9.303v2.84H12.413v-2.84h37.879c0.724,0,1.312-0.588,1.312-1.313
			s-0.588-1.313-1.312-1.313H12.413V18.446h55.173V44.965z"/>
	</g>
</g>
</svg>
